<svg aria-hidden="true" style="position:absolute;width:0;height:0;overflow:hidden" xmlns="http://www.w3.org/2000/svg">
  <defs>
    <symbol id="figma" viewBox="0 0 32 32">
      <path stroke-linejoin="round" stroke-linecap="round" stroke-width="2.667" d="M6.667 7.333a4.667 4.667 0 0 1 4.667-4.667h4.667v9.333h-4.667a4.667 4.667 0 0 1-4.667-4.667z"/>
      <path stroke-linejoin="round" stroke-linecap="round" stroke-width="2.667" d="M16 2.667h4.667a4.676 4.676 0 0 1 3.3 1.367 4.68 4.68 0 0 1 1.367 3.3 4.676 4.676 0 0 1-1.367 3.3 4.68 4.68 0 0 1-3.3 1.367H16V2.668z"/>
      <path stroke-linejoin="round" stroke-linecap="round" stroke-width="2.667" d="M16 16.667a4.676 4.676 0 0 1 1.367-3.3 4.68 4.68 0 0 1 3.3-1.367 4.676 4.676 0 0 1 3.3 1.367 4.68 4.68 0 0 1 1.367 3.3 4.676 4.676 0 0 1-1.367 3.3 4.68 4.68 0 0 1-3.3 1.367 4.676 4.676 0 0 1-3.3-1.367 4.68 4.68 0 0 1-1.367-3.3zm0 0zM6.667 26a4.667 4.667 0 0 1 4.667-4.667h4.667V26a4.667 4.667 0 0 1-9.334 0z"/>
      <path stroke-linejoin="round" stroke-linecap="round" stroke-width="2.667" d="M6.667 16.667A4.667 4.667 0 0 1 11.334 12h4.667v9.333h-4.667a4.667 4.667 0 0 1-4.667-4.667z"/>
    </symbol>
    <symbol id="insta" viewBox="0 0 32 32">
      <path stroke-linejoin="round" stroke-linecap="round" stroke-width="2.667" d="M22.667 2.667H9.334a6.667 6.667 0 0 0-6.667 6.667v13.333a6.667 6.667 0 0 0 6.667 6.667h13.333a6.667 6.667 0 0 0 6.667-6.667V9.334a6.667 6.667 0 0 0-6.667-6.667z"/>
      <path stroke-linejoin="round" stroke-linecap="round" stroke-width="2.667" d="M21.333 15.16a5.329 5.329 0 0 1-2.878 5.546 5.337 5.337 0 0 1-6.169-.992 5.33 5.33 0 0 1 1.316-8.505 5.336 5.336 0 0 1 6.228.962 5.328 5.328 0 0 1 1.504 2.989zm2-6.493h.013"/>
    </symbol>
    <symbol id="twit" viewBox="0 0 32 32">
      <path stroke-linejoin="round" stroke-linecap="round" stroke-width="2.667" d="M30.667 4a14.542 14.542 0 0 1-4.187 2.04 5.975 5.975 0 0 0-6.637-1.661A5.981 5.981 0 0 0 16 10.04v1.333a14.211 14.211 0 0 1-12-6.04s-5.333 12 6.667 17.333a15.519 15.519 0 0 1-9.333 2.667c12 6.667 26.667 0 26.667-15.333a5.966 5.966 0 0 0-.107-1.107A10.288 10.288 0 0 0 30.667 4zm0 0z"/>
    </symbol>
  </defs>
</svg>
